<?xml version="1.0" encoding="iso-8859-1"?>
<!-- Generator: Adobe Illustrator 19.0.0, SVG Export Plug-In . SVG Version: 6.00 Build 0)  -->
<svg xmlns="http://www.w3.org/2000/svg" xmlns:xlink="http://www.w3.org/1999/xlink" version="1.1" id="Layer_1" x="0px" y="0px" viewBox="0 0 512 512" style="enable-background:new 0 0 512 512;" xml:space="preserve" width="512px" height="512px">
<g>
	<g>
		<path d="M384,85.333c-7.771,0-15.063,2.083-21.333,5.729V64c0-23.531-19.146-42.667-42.667-42.667    c-8.771,0-16.938,2.667-23.729,7.219C290.437,11.948,274.583,0,256,0s-34.438,11.948-40.271,28.552    C208.937,24,200.771,21.333,192,21.333c-23.521,0-42.667,19.135-42.667,42.667v160.021c-8.917-6.708-20-10.688-32-10.688    c-17.646,0-32,14.354-32,32v141.01c0,35.521,15.458,69.156,42.438,92.281C152.896,500.146,184.937,512,218.021,512H320    c58.813,0,106.667-47.854,106.667-106.667V128C426.667,104.469,407.521,85.333,384,85.333z M405.333,405.333    c0,47.052-38.271,85.333-85.333,85.333H218.021c-28,0-55.104-10.031-76.375-28.24c-22.229-19.073-34.979-46.802-34.979-76.083    v-141.01c0-5.885,4.792-10.667,10.667-10.667c17.646,0,32,14.354,32,32v64c0,5.896,4.771,10.667,10.667,10.667    s10.667-4.771,10.667-10.667V64c0-11.76,9.563-21.333,21.333-21.333S213.333,52.24,213.333,64v138.667    c0,5.896,4.771,10.667,10.667,10.667s10.667-4.771,10.667-10.667v-160c0-11.76,9.563-21.333,21.333-21.333    s21.333,9.573,21.333,21.333v160c0,5.896,4.771,10.667,10.667,10.667s10.667-4.771,10.667-10.667V64    c0-11.76,9.563-21.333,21.333-21.333S341.333,52.24,341.333,64v170.667c0,5.896,4.771,10.667,10.667,10.667    c5.896,0,10.667-4.771,10.667-10.667V128c0-11.76,9.563-21.333,21.333-21.333c11.771,0,21.333,9.573,21.333,21.333V405.333z" fill="#5c5c5c"/>
	</g>
</g>
<g>
</g>
<g>
</g>
<g>
</g>
<g>
</g>
<g>
</g>
<g>
</g>
<g>
</g>
<g>
</g>
<g>
</g>
<g>
</g>
<g>
</g>
<g>
</g>
<g>
</g>
<g>
</g>
<g>
</g>
</svg>
